<svg width="43" height="42" viewBox="0 0 43 42" fill="none" xmlns="http://www.w3.org/2000/svg">
<path fill-rule="evenodd" clip-rule="evenodd" d="M16 6H5C2.23858 6 0 8.23858 0 11V31C0 33.7614 2.23858 36 5 36H16V32H5C4.44772 32 4 31.5523 4 31V11C4 10.4477 4.44772 10 5 10H16V6ZM28 32H38C38.5523 32 39 31.5523 39 31V11C39 10.4477 38.5523 10 38 10H28V6H38C40.7614 6 43 8.23858 43 11V31C43 33.7614 40.7614 36 38 36H28V32Z" fill="black"/>
<path d="M22 2L22 40" stroke="black" stroke-width="4" stroke-linecap="round"/>
</svg>
